<mxfile host="app.diagrams.net" agent="Mozilla/5.0 (Macintosh; Intel Mac OS X 10_15_7) AppleWebKit/537.36 (KHTML, like Gecko) Chrome/131.0.0.0 Safari/537.36" version="25.0.3">
  <diagram name="Page-1" id="rERbwTD-LuFYgATjgkLb">
    <mxGraphModel dx="813" dy="520" grid="1" gridSize="10" guides="1" tooltips="1" connect="1" arrows="1" fold="1" page="1" pageScale="1" pageWidth="827" pageHeight="1169" math="0" shadow="0">
      <root>
        <mxCell id="0" />
        <mxCell id="1" parent="0" />
        <mxCell id="6-wRto2daRSmGl-W9JOU-10" style="edgeStyle=orthogonalEdgeStyle;rounded=0;orthogonalLoop=1;jettySize=auto;html=1;exitX=0.5;exitY=1;exitDx=0;exitDy=0;entryX=0.5;entryY=0;entryDx=0;entryDy=0;" edge="1" parent="1" source="6-wRto2daRSmGl-W9JOU-1" target="6-wRto2daRSmGl-W9JOU-3">
          <mxGeometry relative="1" as="geometry" />
        </mxCell>
        <mxCell id="6-wRto2daRSmGl-W9JOU-1" value="DomainTag" style="rounded=0;whiteSpace=wrap;html=1;" vertex="1" parent="1">
          <mxGeometry x="80" y="80" width="90" height="30" as="geometry" />
        </mxCell>
        <mxCell id="6-wRto2daRSmGl-W9JOU-13" style="edgeStyle=orthogonalEdgeStyle;rounded=0;orthogonalLoop=1;jettySize=auto;html=1;" edge="1" parent="1" source="6-wRto2daRSmGl-W9JOU-2" target="6-wRto2daRSmGl-W9JOU-7">
          <mxGeometry relative="1" as="geometry">
            <Array as="points">
              <mxPoint x="75" y="240" />
              <mxPoint x="235" y="240" />
            </Array>
          </mxGeometry>
        </mxCell>
        <mxCell id="6-wRto2daRSmGl-W9JOU-15" style="edgeStyle=orthogonalEdgeStyle;rounded=0;orthogonalLoop=1;jettySize=auto;html=1;entryX=0.5;entryY=0;entryDx=0;entryDy=0;" edge="1" parent="1" source="6-wRto2daRSmGl-W9JOU-2" target="6-wRto2daRSmGl-W9JOU-14">
          <mxGeometry relative="1" as="geometry">
            <Array as="points">
              <mxPoint x="75" y="240" />
              <mxPoint x="385" y="240" />
            </Array>
          </mxGeometry>
        </mxCell>
        <mxCell id="6-wRto2daRSmGl-W9JOU-2" value="StructureTag" style="rounded=0;whiteSpace=wrap;html=1;" vertex="1" parent="1">
          <mxGeometry x="30" y="170" width="90" height="30" as="geometry" />
        </mxCell>
        <mxCell id="6-wRto2daRSmGl-W9JOU-3" value="OctreeTag" style="rounded=0;whiteSpace=wrap;html=1;" vertex="1" parent="1">
          <mxGeometry x="140" y="170" width="90" height="30" as="geometry" />
        </mxCell>
        <mxCell id="6-wRto2daRSmGl-W9JOU-11" style="edgeStyle=orthogonalEdgeStyle;rounded=0;orthogonalLoop=1;jettySize=auto;html=1;entryX=0.75;entryY=0;entryDx=0;entryDy=0;jumpStyle=arc;" edge="1" parent="1" source="6-wRto2daRSmGl-W9JOU-4" target="6-wRto2daRSmGl-W9JOU-7">
          <mxGeometry relative="1" as="geometry">
            <Array as="points">
              <mxPoint x="325" y="220" />
              <mxPoint x="258" y="220" />
              <mxPoint x="258" y="280" />
            </Array>
          </mxGeometry>
        </mxCell>
        <mxCell id="6-wRto2daRSmGl-W9JOU-17" style="edgeStyle=orthogonalEdgeStyle;rounded=0;orthogonalLoop=1;jettySize=auto;html=1;entryX=0.25;entryY=0;entryDx=0;entryDy=0;exitX=0.656;exitY=1;exitDx=0;exitDy=0;exitPerimeter=0;dashed=1;" edge="1" parent="1" source="6-wRto2daRSmGl-W9JOU-4" target="6-wRto2daRSmGl-W9JOU-16">
          <mxGeometry relative="1" as="geometry">
            <Array as="points">
              <mxPoint x="339" y="175" />
              <mxPoint x="340" y="175" />
              <mxPoint x="340" y="210" />
              <mxPoint x="583" y="210" />
              <mxPoint x="583" y="280" />
            </Array>
          </mxGeometry>
        </mxCell>
        <mxCell id="6-wRto2daRSmGl-W9JOU-4" value="GridBaseTag" style="rounded=0;whiteSpace=wrap;html=1;" vertex="1" parent="1">
          <mxGeometry x="280" y="80" width="90" height="30" as="geometry" />
        </mxCell>
        <mxCell id="6-wRto2daRSmGl-W9JOU-19" style="edgeStyle=orthogonalEdgeStyle;rounded=0;orthogonalLoop=1;jettySize=auto;html=1;entryX=0.25;entryY=0;entryDx=0;entryDy=0;dashed=1;" edge="1" parent="1" source="6-wRto2daRSmGl-W9JOU-5" target="6-wRto2daRSmGl-W9JOU-16">
          <mxGeometry relative="1" as="geometry">
            <Array as="points">
              <mxPoint x="425" y="210" />
              <mxPoint x="583" y="210" />
            </Array>
          </mxGeometry>
        </mxCell>
        <mxCell id="6-wRto2daRSmGl-W9JOU-42" style="edgeStyle=orthogonalEdgeStyle;rounded=0;orthogonalLoop=1;jettySize=auto;html=1;entryX=0.75;entryY=0;entryDx=0;entryDy=0;jumpStyle=arc;" edge="1" parent="1" source="6-wRto2daRSmGl-W9JOU-5" target="6-wRto2daRSmGl-W9JOU-14">
          <mxGeometry relative="1" as="geometry">
            <Array as="points">
              <mxPoint x="408" y="195" />
            </Array>
          </mxGeometry>
        </mxCell>
        <mxCell id="6-wRto2daRSmGl-W9JOU-5" value="GhostBaseTag" style="rounded=0;whiteSpace=wrap;html=1;" vertex="1" parent="1">
          <mxGeometry x="380" y="80" width="90" height="30" as="geometry" />
        </mxCell>
        <mxCell id="6-wRto2daRSmGl-W9JOU-21" style="edgeStyle=orthogonalEdgeStyle;rounded=0;orthogonalLoop=1;jettySize=auto;html=1;entryX=0.25;entryY=0;entryDx=0;entryDy=0;dashed=1;" edge="1" parent="1" source="6-wRto2daRSmGl-W9JOU-6" target="6-wRto2daRSmGl-W9JOU-16">
          <mxGeometry relative="1" as="geometry">
            <Array as="points">
              <mxPoint x="503" y="210" />
              <mxPoint x="583" y="210" />
            </Array>
          </mxGeometry>
        </mxCell>
        <mxCell id="6-wRto2daRSmGl-W9JOU-6" value="OrderBaseTag" style="rounded=0;whiteSpace=wrap;html=1;" vertex="1" parent="1">
          <mxGeometry x="480" y="80" width="90" height="30" as="geometry" />
        </mxCell>
        <mxCell id="6-wRto2daRSmGl-W9JOU-29" style="edgeStyle=orthogonalEdgeStyle;rounded=0;orthogonalLoop=1;jettySize=auto;html=1;entryX=0.5;entryY=0;entryDx=0;entryDy=0;" edge="1" parent="1" source="6-wRto2daRSmGl-W9JOU-7" target="6-wRto2daRSmGl-W9JOU-27">
          <mxGeometry relative="1" as="geometry" />
        </mxCell>
        <mxCell id="6-wRto2daRSmGl-W9JOU-30" style="edgeStyle=orthogonalEdgeStyle;rounded=0;orthogonalLoop=1;jettySize=auto;html=1;entryX=0.5;entryY=0;entryDx=0;entryDy=0;" edge="1" parent="1" source="6-wRto2daRSmGl-W9JOU-7" target="6-wRto2daRSmGl-W9JOU-28">
          <mxGeometry relative="1" as="geometry" />
        </mxCell>
        <mxCell id="6-wRto2daRSmGl-W9JOU-7" value="SGridTag" style="rounded=0;whiteSpace=wrap;html=1;" vertex="1" parent="1">
          <mxGeometry x="190" y="280" width="90" height="30" as="geometry" />
        </mxCell>
        <mxCell id="6-wRto2daRSmGl-W9JOU-9" style="edgeStyle=orthogonalEdgeStyle;rounded=0;orthogonalLoop=1;jettySize=auto;html=1;entryX=0.578;entryY=0;entryDx=0;entryDy=0;entryPerimeter=0;" edge="1" parent="1" source="6-wRto2daRSmGl-W9JOU-1" target="6-wRto2daRSmGl-W9JOU-2">
          <mxGeometry relative="1" as="geometry" />
        </mxCell>
        <mxCell id="6-wRto2daRSmGl-W9JOU-32" style="edgeStyle=orthogonalEdgeStyle;rounded=0;orthogonalLoop=1;jettySize=auto;html=1;entryX=0;entryY=0.5;entryDx=0;entryDy=0;" edge="1" parent="1" source="6-wRto2daRSmGl-W9JOU-14" target="6-wRto2daRSmGl-W9JOU-31">
          <mxGeometry relative="1" as="geometry">
            <Array as="points">
              <mxPoint x="350" y="355" />
            </Array>
          </mxGeometry>
        </mxCell>
        <mxCell id="6-wRto2daRSmGl-W9JOU-35" style="edgeStyle=orthogonalEdgeStyle;rounded=0;orthogonalLoop=1;jettySize=auto;html=1;entryX=0;entryY=0.5;entryDx=0;entryDy=0;" edge="1" parent="1" source="6-wRto2daRSmGl-W9JOU-14" target="6-wRto2daRSmGl-W9JOU-33">
          <mxGeometry relative="1" as="geometry">
            <Array as="points">
              <mxPoint x="350" y="395" />
            </Array>
          </mxGeometry>
        </mxCell>
        <mxCell id="6-wRto2daRSmGl-W9JOU-36" style="edgeStyle=orthogonalEdgeStyle;rounded=0;orthogonalLoop=1;jettySize=auto;html=1;entryX=0;entryY=0.5;entryDx=0;entryDy=0;" edge="1" parent="1" source="6-wRto2daRSmGl-W9JOU-14" target="6-wRto2daRSmGl-W9JOU-34">
          <mxGeometry relative="1" as="geometry">
            <Array as="points">
              <mxPoint x="350" y="435" />
            </Array>
          </mxGeometry>
        </mxCell>
        <mxCell id="6-wRto2daRSmGl-W9JOU-14" value="SGhostTag" style="rounded=0;whiteSpace=wrap;html=1;" vertex="1" parent="1">
          <mxGeometry x="340" y="280" width="90" height="30" as="geometry" />
        </mxCell>
        <mxCell id="6-wRto2daRSmGl-W9JOU-52" style="edgeStyle=orthogonalEdgeStyle;rounded=0;orthogonalLoop=1;jettySize=auto;html=1;entryX=0;entryY=0.5;entryDx=0;entryDy=0;" edge="1" parent="1" source="6-wRto2daRSmGl-W9JOU-16" target="6-wRto2daRSmGl-W9JOU-46">
          <mxGeometry relative="1" as="geometry">
            <Array as="points">
              <mxPoint x="570" y="355" />
            </Array>
          </mxGeometry>
        </mxCell>
        <mxCell id="6-wRto2daRSmGl-W9JOU-54" style="edgeStyle=orthogonalEdgeStyle;rounded=0;orthogonalLoop=1;jettySize=auto;html=1;entryX=0;entryY=0.5;entryDx=0;entryDy=0;" edge="1" parent="1" source="6-wRto2daRSmGl-W9JOU-16" target="6-wRto2daRSmGl-W9JOU-50">
          <mxGeometry relative="1" as="geometry">
            <Array as="points">
              <mxPoint x="570" y="435" />
            </Array>
          </mxGeometry>
        </mxCell>
        <mxCell id="6-wRto2daRSmGl-W9JOU-55" style="edgeStyle=orthogonalEdgeStyle;rounded=0;orthogonalLoop=1;jettySize=auto;html=1;entryX=0;entryY=0.5;entryDx=0;entryDy=0;" edge="1" parent="1" source="6-wRto2daRSmGl-W9JOU-16" target="6-wRto2daRSmGl-W9JOU-49">
          <mxGeometry relative="1" as="geometry">
            <Array as="points">
              <mxPoint x="570" y="475" />
            </Array>
          </mxGeometry>
        </mxCell>
        <mxCell id="6-wRto2daRSmGl-W9JOU-56" style="edgeStyle=orthogonalEdgeStyle;rounded=0;orthogonalLoop=1;jettySize=auto;html=1;entryX=0;entryY=0.5;entryDx=0;entryDy=0;" edge="1" parent="1" source="6-wRto2daRSmGl-W9JOU-16" target="6-wRto2daRSmGl-W9JOU-48">
          <mxGeometry relative="1" as="geometry">
            <Array as="points">
              <mxPoint x="570" y="515" />
            </Array>
          </mxGeometry>
        </mxCell>
        <mxCell id="6-wRto2daRSmGl-W9JOU-57" style="edgeStyle=orthogonalEdgeStyle;rounded=0;orthogonalLoop=1;jettySize=auto;html=1;entryX=0;entryY=0.5;entryDx=0;entryDy=0;" edge="1" parent="1" source="6-wRto2daRSmGl-W9JOU-16" target="6-wRto2daRSmGl-W9JOU-51">
          <mxGeometry relative="1" as="geometry">
            <Array as="points">
              <mxPoint x="570" y="555" />
            </Array>
          </mxGeometry>
        </mxCell>
        <mxCell id="6-wRto2daRSmGl-W9JOU-59" style="edgeStyle=orthogonalEdgeStyle;rounded=0;orthogonalLoop=1;jettySize=auto;html=1;entryX=0;entryY=0.5;entryDx=0;entryDy=0;" edge="1" parent="1" source="6-wRto2daRSmGl-W9JOU-16" target="6-wRto2daRSmGl-W9JOU-47">
          <mxGeometry relative="1" as="geometry">
            <Array as="points">
              <mxPoint x="570" y="395" />
            </Array>
          </mxGeometry>
        </mxCell>
        <mxCell id="6-wRto2daRSmGl-W9JOU-16" value="SFieldTag" style="rounded=0;whiteSpace=wrap;html=1;" vertex="1" parent="1">
          <mxGeometry x="560" y="280" width="90" height="30" as="geometry" />
        </mxCell>
        <mxCell id="6-wRto2daRSmGl-W9JOU-26" style="edgeStyle=orthogonalEdgeStyle;rounded=0;orthogonalLoop=1;jettySize=auto;html=1;exitX=0.25;exitY=1;exitDx=0;exitDy=0;entryX=0.75;entryY=0;entryDx=0;entryDy=0;" edge="1" parent="1" source="6-wRto2daRSmGl-W9JOU-25" target="6-wRto2daRSmGl-W9JOU-16">
          <mxGeometry relative="1" as="geometry">
            <mxPoint x="650" y="260" as="targetPoint" />
            <Array as="points">
              <mxPoint x="613" y="195" />
              <mxPoint x="628" y="195" />
            </Array>
          </mxGeometry>
        </mxCell>
        <mxCell id="6-wRto2daRSmGl-W9JOU-25" value="FieldBaseTag" style="rounded=0;whiteSpace=wrap;html=1;" vertex="1" parent="1">
          <mxGeometry x="590" y="80" width="90" height="30" as="geometry" />
        </mxCell>
        <mxCell id="6-wRto2daRSmGl-W9JOU-27" value="SUniformTag" style="rounded=0;whiteSpace=wrap;html=1;" vertex="1" parent="1">
          <mxGeometry x="60" y="340" width="90" height="30" as="geometry" />
        </mxCell>
        <mxCell id="6-wRto2daRSmGl-W9JOU-28" value="SNonUniformTag" style="rounded=0;whiteSpace=wrap;html=1;" vertex="1" parent="1">
          <mxGeometry x="180" y="340" width="110" height="30" as="geometry" />
        </mxCell>
        <mxCell id="6-wRto2daRSmGl-W9JOU-31" value="SRegular&lt;span style=&quot;background-color: initial;&quot;&gt;Tag&lt;/span&gt;" style="rounded=0;whiteSpace=wrap;html=1;" vertex="1" parent="1">
          <mxGeometry x="370" y="340" width="110" height="30" as="geometry" />
        </mxCell>
        <mxCell id="6-wRto2daRSmGl-W9JOU-33" value="SReglarSubdivision&lt;span style=&quot;background-color: initial;&quot;&gt;Tag&lt;/span&gt;" style="rounded=0;whiteSpace=wrap;html=1;" vertex="1" parent="1">
          <mxGeometry x="370" y="380" width="140" height="30" as="geometry" />
        </mxCell>
        <mxCell id="6-wRto2daRSmGl-W9JOU-34" value="SMask&lt;span style=&quot;background-color: initial;&quot;&gt;Tag&lt;/span&gt;" style="rounded=0;whiteSpace=wrap;html=1;" vertex="1" parent="1">
          <mxGeometry x="370" y="420" width="90" height="30" as="geometry" />
        </mxCell>
        <mxCell id="6-wRto2daRSmGl-W9JOU-37" value="DimTag" style="rounded=0;whiteSpace=wrap;html=1;" vertex="1" parent="1">
          <mxGeometry x="700" y="80" width="90" height="30" as="geometry" />
        </mxCell>
        <mxCell id="6-wRto2daRSmGl-W9JOU-38" value="Dim1Tag" style="rounded=0;whiteSpace=wrap;html=1;" vertex="1" parent="1">
          <mxGeometry x="700" y="130" width="90" height="30" as="geometry" />
        </mxCell>
        <mxCell id="6-wRto2daRSmGl-W9JOU-39" value="Dim2&lt;span style=&quot;background-color: initial;&quot;&gt;Tag&lt;/span&gt;" style="rounded=0;whiteSpace=wrap;html=1;" vertex="1" parent="1">
          <mxGeometry x="700" y="170" width="90" height="30" as="geometry" />
        </mxCell>
        <mxCell id="6-wRto2daRSmGl-W9JOU-40" value="Dim3&lt;span style=&quot;background-color: initial;&quot;&gt;Tag&lt;/span&gt;" style="rounded=0;whiteSpace=wrap;html=1;" vertex="1" parent="1">
          <mxGeometry x="700" y="210" width="90" height="30" as="geometry" />
        </mxCell>
        <mxCell id="6-wRto2daRSmGl-W9JOU-44" value="SCut&lt;span style=&quot;background-color: initial;&quot;&gt;Tag&lt;/span&gt;" style="rounded=0;whiteSpace=wrap;html=1;" vertex="1" parent="1">
          <mxGeometry x="370" y="460" width="90" height="30" as="geometry" />
        </mxCell>
        <mxCell id="6-wRto2daRSmGl-W9JOU-45" style="edgeStyle=orthogonalEdgeStyle;rounded=0;orthogonalLoop=1;jettySize=auto;html=1;entryX=0;entryY=0.5;entryDx=0;entryDy=0;exitX=0.11;exitY=1.014;exitDx=0;exitDy=0;exitPerimeter=0;" edge="1" parent="1" source="6-wRto2daRSmGl-W9JOU-14" target="6-wRto2daRSmGl-W9JOU-44">
          <mxGeometry relative="1" as="geometry">
            <mxPoint x="360" y="320" as="sourcePoint" />
            <mxPoint x="380" y="445" as="targetPoint" />
          </mxGeometry>
        </mxCell>
        <mxCell id="6-wRto2daRSmGl-W9JOU-46" value="SFieldCenterTag" style="rounded=0;whiteSpace=wrap;html=1;" vertex="1" parent="1">
          <mxGeometry x="610" y="340" width="110" height="30" as="geometry" />
        </mxCell>
        <mxCell id="6-wRto2daRSmGl-W9JOU-47" value="SFieldFaceTag" style="rounded=0;whiteSpace=wrap;html=1;" vertex="1" parent="1">
          <mxGeometry x="610" y="380" width="110" height="30" as="geometry" />
        </mxCell>
        <mxCell id="6-wRto2daRSmGl-W9JOU-48" value="SVectorFaceTag" style="rounded=0;whiteSpace=wrap;html=1;" vertex="1" parent="1">
          <mxGeometry x="610" y="500" width="110" height="30" as="geometry" />
        </mxCell>
        <mxCell id="6-wRto2daRSmGl-W9JOU-49" value="SVectorCenterTag" style="rounded=0;whiteSpace=wrap;html=1;" vertex="1" parent="1">
          <mxGeometry x="610" y="460" width="110" height="30" as="geometry" />
        </mxCell>
        <mxCell id="6-wRto2daRSmGl-W9JOU-50" value="SFieldCornerTag" style="rounded=0;whiteSpace=wrap;html=1;" vertex="1" parent="1">
          <mxGeometry x="610" y="420" width="110" height="30" as="geometry" />
        </mxCell>
        <mxCell id="6-wRto2daRSmGl-W9JOU-51" value="SVectorCornerTag" style="rounded=0;whiteSpace=wrap;html=1;" vertex="1" parent="1">
          <mxGeometry x="610" y="540" width="110" height="30" as="geometry" />
        </mxCell>
      </root>
    </mxGraphModel>
  </diagram>
</mxfile>
